<svg width="1200" height="500" viewBox="0 0 1200 500" xmlns="http://www.w3.org/2000/svg">
  <defs>
    <linearGradient id="servicesBg" x1="0%" y1="0%" x2="100%" y2="100%">
      <stop offset="0%" style="stop-color:#1ABC9C;stop-opacity:1" />
      <stop offset="100%" style="stop-color:#16A085;stop-opacity:1" />
    </linearGradient>
    <linearGradient id="cardGradient" x1="0%" y1="0%" x2="0%" y2="100%">
      <stop offset="0%" style="stop-color:#FFFFFF;stop-opacity:0.95" />
      <stop offset="100%" style="stop-color:#ECF0F1;stop-opacity:0.95" />
    </linearGradient>
    <linearGradient id="iconGradient" x1="0%" y1="0%" x2="0%" y2="100%">
      <stop offset="0%" style="stop-color:#3498DB;stop-opacity:1" />
      <stop offset="100%" style="stop-color:#2980B9;stop-opacity:1" />
    </linearGradient>
  </defs>
  
  <!-- Background -->
  <rect width="1200" height="500" fill="url(#servicesBg)"/>
  
  <!-- Service Categories Cards -->
  
  <!-- Immigration Services Card -->
  <g transform="translate(50,80)">
    <rect x="0" y="0" width="200" height="150" fill="url(#cardGradient)" rx="10" stroke="#16A085" stroke-width="2"/>
    
    <!-- Passport Icon -->
    <rect x="80" y="20" width="40" height="55" fill="#8B4513" rx="3"/>
    <rect x="83" y="23" width="34" height="49" fill="#D2691E" rx="2"/>
    <rect x="87" y="30" width="26" height="3" fill="#8B4513"/>
    <rect x="87" y="36" width="26" height="3" fill="#8B4513"/>
    <rect x="87" y="42" width="20" height="3" fill="#8B4513"/>
    <rect x="87" y="48" width="24" height="3" fill="#8B4513"/>
    
    <!-- Eagle emblem -->
    <ellipse cx="100" cy="58" rx="8" ry="5" fill="#F39C12"/>
    <polygon points="100,55 95,60 105,60" fill="#E67E22"/>
    
    <text x="100" y="100" text-anchor="middle" font-family="Arial" font-size="14" fill="#2C3E50" font-weight="bold">Immigration</text>
    <text x="100" y="115" text-anchor="middle" font-family="Arial" font-size="10" fill="#34495E">Permanent Residence</text>
    <text x="100" y="127" text-anchor="middle" font-family="Arial" font-size="10" fill="#34495E">Express Entry • PNP</text>
  </g>
  
  <!-- Study Abroad Card -->
  <g transform="translate(300,80)">
    <rect x="0" y="0" width="200" height="150" fill="url(#cardGradient)" rx="10" stroke="#16A085" stroke-width="2"/>
    
    <!-- Graduation Cap -->
    <rect x="85" y="35" width="30" height="20" fill="#2C3E50" rx="2"/>
    <polygon points="70,40 130,40 125,30 75,30" fill="#34495E"/>
    <rect x="112" y="30" width="3" height="25" fill="#F39C12"/>
    <rect x="115" y="28" width="8" height="8" fill="#F39C12"/>
    
    <!-- Books -->
    <rect x="75" y="50" width="20" height="3" fill="#E74C3C"/>
    <rect x="77" y="53" width="20" height="3" fill="#3498DB"/>
    <rect x="79" y="56" width="20" height="3" fill="#27AE60"/>
    
    <text x="100" y="100" text-anchor="middle" font-family="Arial" font-size="14" fill="#2C3E50" font-weight="bold">Study Abroad</text>
    <text x="100" y="115" text-anchor="middle" font-family="Arial" font-size="10" fill="#34495E">Student Visas</text>
    <text x="100" y="127" text-anchor="middle" font-family="Arial" font-size="10" fill="#34495E">University Admission</text>
  </g>
  
  <!-- Work Permits Card -->
  <g transform="translate(550,80)">
    <rect x="0" y="0" width="200" height="150" fill="url(#cardGradient)" rx="10" stroke="#16A085" stroke-width="2"/>
    
    <!-- Briefcase -->
    <rect x="80" y="35" width="40" height="30" fill="#8B4513" rx="3"/>
    <rect x="83" y="38" width="34" height="24" fill="#A0522D"/>
    <rect x="95" y="25" width="10" height="12" fill="#654321" rx="2"/>
    <circle cx="88" cy="70" r="2" fill="#333"/>
    <circle cx="112" cy="70" r="2" fill="#333"/>
    <rect x="97" y="45" width="6" height="10" fill="#F39C12" rx="1"/>
    
    <!-- Work tools -->
    <rect x="70" y="28" width="12" height="2" fill="#95A5A6"/>
    <rect x="118" y="28" width="12" height="2" fill="#95A5A6"/>
    
    <text x="100" y="100" text-anchor="middle" font-family="Arial" font-size="14" fill="#2C3E50" font-weight="bold">Work Permits</text>
    <text x="100" y="115" text-anchor="middle" font-family="Arial" font-size="10" fill="#34495E">LMIA Services</text>
    <text x="100" y="127" text-anchor="middle" font-family="Arial" font-size="10" fill="#34495E">Temporary Work</text>
  </g>
  
  <!-- Family Sponsorship Card -->
  <g transform="translate(800,80)">
    <rect x="0" y="0" width="200" height="150" fill="url(#cardGradient)" rx="10" stroke="#16A085" stroke-width="2"/>
    
    <!-- Family Icons -->
    <!-- Adult 1 -->
    <circle cx="85" cy="30" r="8" fill="#F4D03F"/>
    <rect x="80" y="38" width="10" height="18" fill="#3498DB" rx="2"/>
    
    <!-- Adult 2 -->
    <circle cx="115" cy="30" r="8" fill="#F4D03F"/>
    <rect x="110" y="38" width="10" height="18" fill="#E74C3C" rx="2"/>
    
    <!-- Child -->
    <circle cx="100" cy="45" r="6" fill="#F4D03F"/>
    <rect x="96" y="51" width="8" height="12" fill="#27AE60" rx="2"/>
    
    <!-- Heart -->
    <path d="M 100 20 C 95 15, 85 15, 85 25 C 85 15, 75 15, 80 25 C 80 30, 100 40, 100 20" fill="#E74C3C" opacity="0.7"/>
    
    <text x="100" y="100" text-anchor="middle" font-family="Arial" font-size="14" fill="#2C3E50" font-weight="bold">Family Sponsorship</text>
    <text x="100" y="115" text-anchor="middle" font-family="Arial" font-size="10" fill="#34495E">Spouse , Children</text>
    <text x="100" y="127" text-anchor="middle" font-family="Arial" font-size="10" fill="#34495E">Parent , Grandparent</text>
  </g>
  
  <!-- Process Flow Arrow -->
  <path d="M 100 280 Q 300 250 500 280 Q 700 310 900 280 Q 1000 260 1100 280" 
        stroke="#FFFFFF" stroke-width="4" fill="none" opacity="0.8" stroke-dasharray="15,5"/>
  <polygon points="1100,280 1090,275 1090,285" fill="#FFFFFF" opacity="0.8"/>
  
  <!-- Process Steps -->
  <g transform="translate(100,300)">
    <circle cx="0" cy="0" r="25" fill="#FFFFFF" opacity="0.9"/>
    <text x="0" y="-30" text-anchor="middle" font-family="Arial" font-size="12" fill="#FFFFFF" font-weight="bold">Step 1</text>
    <text x="0" y="5" text-anchor="middle" font-family="Arial" font-size="10" fill="#16A085" font-weight="bold">Consultation</text>
    <text x="0" y="40" text-anchor="middle" font-family="Arial" font-size="9" fill="#FFFFFF">Free Assessment</text>
  </g>
  
  <g transform="translate(350,300)">
    <circle cx="0" cy="0" r="25" fill="#FFFFFF" opacity="0.9"/>
    <text x="0" y="-30" text-anchor="middle" font-family="Arial" font-size="12" fill="#FFFFFF" font-weight="bold">Step 2</text>
    <text x="0" y="5" text-anchor="middle" font-family="Arial" font-size="10" fill="#16A085" font-weight="bold">Planning</text>
    <text x="0" y="40" text-anchor="middle" font-family="Arial" font-size="9" fill="#FFFFFF">Strategy Development</text>
  </g>
  
  <g transform="translate(600,300)">
    <circle cx="0" cy="0" r="25" fill="#FFFFFF" opacity="0.9"/>
    <text x="0" y="-30" text-anchor="middle" font-family="Arial" font-size="12" fill="#FFFFFF" font-weight="bold">Step 3</text>
    <text x="0" y="5" text-anchor="middle" font-family="Arial" font-size="10" fill="#16A085" font-weight="bold">Application</text>
    <text x="0" y="40" text-anchor="middle" font-family="Arial" font-size="9" fill="#FFFFFF">Document Preparation</text>
  </g>
  
  <g transform="translate(850,300)">
    <circle cx="0" cy="0" r="25" fill="#FFFFFF" opacity="0.9"/>
    <text x="0" y="-30" text-anchor="middle" font-family="Arial" font-size="12" fill="#FFFFFF" font-weight="bold">Step 4</text>
    <text x="0" y="5" text-anchor="middle" font-family="Arial" font-size="10" fill="#16A085" font-weight="bold">Submission</text>
    <text x="0" y="40" text-anchor="middle" font-family="Arial" font-size="9" fill="#FFFFFF">Government Filing</text>
  </g>
  
  <g transform="translate(1100,300)">
    <circle cx="0" cy="0" r="25" fill="#FFFFFF" opacity="0.9"/>
    <text x="0" y="-30" text-anchor="middle" font-family="Arial" font-size="12" fill="#FFFFFF" font-weight="bold">Step 5</text>
    <text x="0" y="5" text-anchor="middle" font-family="Arial" font-size="10" fill="#16A085" font-weight="bold">Success</text>
    <text x="0" y="40" text-anchor="middle" font-family="Arial" font-size="9" fill="#FFFFFF">Visa Approval</text>
  </g>
  
  <!-- Success Statistics -->
  <g transform="translate(50,380)">
    <rect x="0" y="0" width="120" height="80" fill="#FFFFFF" opacity="0.1" rx="8"/>
    <text x="60" y="20" text-anchor="middle" font-family="Arial" font-size="24" fill="#FFFFFF" font-weight="bold">98%</text>
    <text x="60" y="35" text-anchor="middle" font-family="Arial" font-size="12" fill="#FFFFFF">Success Rate</text>
    <text x="60" y="50" text-anchor="middle" font-family="Arial" font-size="10" fill="#FFFFFF" opacity="0.8">All Services</text>
  </g>
  
  <g transform="translate(200,380)">
    <rect x="0" y="0" width="120" height="80" fill="#FFFFFF" opacity="0.1" rx="8"/>
    <text x="60" y="20" text-anchor="middle" font-family="Arial" font-size="24" fill="#FFFFFF" font-weight="bold">5000+</text>
    <text x="60" y="35" text-anchor="middle" font-family="Arial" font-size="12" fill="#FFFFFF">Happy Clients</text>
    <text x="60" y="50" text-anchor="middle" font-family="Arial" font-size="10" fill="#FFFFFF" opacity="0.8">Since 2008</text>
  </g>
  
  <g transform="translate(350,380)">
    <rect x="0" y="0" width="120" height="80" fill="#FFFFFF" opacity="0.1" rx="8"/>
    <text x="60" y="20" text-anchor="middle" font-family="Arial" font-size="24" fill="#FFFFFF" font-weight="bold">50+</text>
    <text x="60" y="35" text-anchor="middle" font-family="Arial" font-size="12" fill="#FFFFFF">Countries</text>
    <text x="60" y="50" text-anchor="middle" font-family="Arial" font-size="10" fill="#FFFFFF" opacity="0.8">Worldwide</text>
  </g>
  
  <!-- Service Icons Bottom -->
  <!-- Document Processing -->
  <g transform="translate(600,400)">
    <rect x="0" y="0" width="30" height="40" fill="#FFFFFF" opacity="0.8" rx="3"/>
    <rect x="3" y="3" width="24" height="34" fill="#3498DB" opacity="0.3"/>
    <rect x="6" y="8" width="18" height="2" fill="#2C3E50"/>
    <rect x="6" y="12" width="15" height="2" fill="#2C3E50"/>
    <rect x="6" y="16" width="18" height="2" fill="#2C3E50"/>
    <rect x="6" y="20" width="12" height="2" fill="#2C3E50"/>
    <rect x="6" y="24" width="16" height="2" fill="#2C3E50"/>
    <circle cx="45" cy="20" r="8" fill="#27AE60"/>
    <path d="M 40 20 L 43 23 L 50 16" stroke="#FFFFFF" stroke-width="2" fill="none"/>
  </g>
  
  <!-- Global Reach -->
  <g transform="translate(750,400)">
    <circle cx="20" cy="20" r="20" fill="#3498DB" opacity="0.8"/>
    <path d="M 5 20 Q 12 10 20 20 Q 28 10 35 20" stroke="#FFFFFF" stroke-width="2" fill="none"/>
    <path d="M 20 0 Q 30 10 20 20 Q 10 10 20 0" stroke="#FFFFFF" stroke-width="2" fill="none"/>
    <path d="M 20 20 Q 30 30 20 40 Q 10 30 20 20" stroke="#FFFFFF" stroke-width="2" fill="none"/>
    
    <!-- Connection points -->
    <circle cx="8" cy="12" r="2" fill="#F39C12"/>
    <circle cx="32" cy="12" r="2" fill="#F39C12"/>
    <circle cx="8" cy="28" r="2" fill="#F39C12"/>
    <circle cx="32" cy="28" r="2" fill="#F39C12"/>
  </g>
  
  <!-- 24/7 Support -->
  <g transform="translate(900,400)">
    <circle cx="20" cy="20" r="18" fill="#E74C3C" opacity="0.8"/>
    <circle cx="20" cy="20" r="15" fill="#FFFFFF"/>
    <line x1="20" y1="8" x2="20" y2="20" stroke="#E74C3C" stroke-width="2"/>
    <line x1="20" y1="20" x2="28" y2="20" stroke="#E74C3C" stroke-width="2"/>
    <circle cx="20" cy="20" r="2" fill="#E74C3C"/>
    
    <!-- Numbers -->
    <text x="20" y="5" text-anchor="middle" font-family="Arial" font-size="6" fill="#E74C3C" font-weight="bold">12</text>
    <text x="35" y="23" text-anchor="middle" font-family="Arial" font-size="6" fill="#E74C3C" font-weight="bold">3</text>
    <text x="20" y="45" text-anchor="middle" font-family="Arial" font-size="6" fill="#E74C3C" font-weight="bold">6</text>
    <text x="5" y="23" text-anchor="middle" font-family="Arial" font-size="6" fill="#E74C3C" font-weight="bold">9</text>
  </g>
  
  <!-- Decorative Elements -->
  <g fill="#FFFFFF" opacity="0.3">
    <circle cx="1050" cy="100" r="3"/>
    <circle cx="1070" cy="120" r="2"/>
    <circle cx="1090" cy="140" r="4"/>
    <circle cx="1110" cy="160" r="2"/>
    <circle cx="1130" cy="180" r="3"/>
    
    <circle cx="50" cy="50" r="2"/>
    <circle cx="70" cy="70" r="3"/>
    <circle cx="90" cy="90" r="2"/>
    <circle cx="110" cy="110" r="4"/>
  </g>
</svg>
