<svg width="1200" height="500" viewBox="0 0 1200 500" xmlns="http://www.w3.org/2000/svg">
  <defs>
    <linearGradient id="bgGradient" x1="0%" y1="0%" x2="100%" y2="100%">
      <stop offset="0%" style="stop-color:#0052CC;stop-opacity:1" />
      <stop offset="100%" style="stop-color:#003D99;stop-opacity:1" />
    </linearGradient>
    <linearGradient id="buildingGradient" x1="0%" y1="0%" x2="0%" y2="100%">
      <stop offset="0%" style="stop-color:#34495E;stop-opacity:1" />
      <stop offset="100%" style="stop-color:#2C3E50;stop-opacity:1" />
    </linearGradient>
    <linearGradient id="glassGradient" x1="0%" y1="0%" x2="0%" y2="100%">
      <stop offset="0%" style="stop-color:#3498DB;stop-opacity:0.6" />
      <stop offset="100%" style="stop-color:#2980B9;stop-opacity:0.8" />
    </linearGradient>
  </defs>
  
  <!-- Background -->
  <rect width="1200" height="500" fill="url(#bgGradient)"/>
  
  <!-- Modern Office Building - Main -->
  <rect x="400" y="150" width="200" height="350" fill="url(#buildingGradient)"/>
  <rect x="410" y="160" width="180" height="330" fill="url(#glassGradient)"/>
  
  <!-- Building Windows Grid -->
  <g fill="white" opacity="0.7">
    <!-- Floor 1 -->
    <rect x="420" y="170" width="15" height="20"/>
    <rect x="445" y="170" width="15" height="20"/>
    <rect x="470" y="170" width="15" height="20"/>
    <rect x="495" y="170" width="15" height="20"/>
    <rect x="520" y="170" width="15" height="20"/>
    <rect x="545" y="170" width="15" height="20"/>
    <rect x="570" y="170" width="15" height="20"/>
    
    <!-- Floor 2 -->
    <rect x="420" y="200" width="15" height="20"/>
    <rect x="445" y="200" width="15" height="20"/>
    <rect x="470" y="200" width="15" height="20"/>
    <rect x="495" y="200" width="15" height="20"/>
    <rect x="520" y="200" width="15" height="20"/>
    <rect x="545" y="200" width="15" height="20"/>
    <rect x="570" y="200" width="15" height="20"/>
    
    <!-- Floor 3 -->
    <rect x="420" y="230" width="15" height="20"/>
    <rect x="445" y="230" width="15" height="20"/>
    <rect x="470" y="230" width="15" height="20"/>
    <rect x="495" y="230" width="15" height="20"/>
    <rect x="520" y="230" width="15" height="20"/>
    <rect x="545" y="230" width="15" height="20"/>
    <rect x="570" y="230" width="15" height="20"/>
    
    <!-- Floor 4 -->
    <rect x="420" y="260" width="15" height="20"/>
    <rect x="445" y="260" width="15" height="20"/>
    <rect x="470" y="260" width="15" height="20"/>
    <rect x="495" y="260" width="15" height="20"/>
    <rect x="520" y="260" width="15" height="20"/>
    <rect x="545" y="260" width="15" height="20"/>
    <rect x="570" y="260" width="15" height="20"/>
    
    <!-- Floor 5 -->
    <rect x="420" y="290" width="15" height="20"/>
    <rect x="445" y="290" width="15" height="20"/>
    <rect x="470" y="290" width="15" height="20"/>
    <rect x="495" y="290" width="15" height="20"/>
    <rect x="520" y="290" width="15" height="20"/>
    <rect x="545" y="290" width="15" height="20"/>
    <rect x="570" y="290" width="15" height="20"/>
    
    <!-- Floor 6 -->
    <rect x="420" y="320" width="15" height="20"/>
    <rect x="445" y="320" width="15" height="20"/>
    <rect x="470" y="320" width="15" height="20"/>
    <rect x="495" y="320" width="15" height="20"/>
    <rect x="520" y="320" width="15" height="20"/>
    <rect x="545" y="320" width="15" height="20"/>
    <rect x="570" y="320" width="15" height="20"/>
  </g>
  
  <!-- Highlighted Office Floor (Our Company) -->
  <rect x="420" y="260" width="165" height="30" fill="#F39C12" opacity="0.8"/>
  <text x="502" y="280" text-anchor="middle" font-family="Arial" font-size="12" fill="white" font-weight="bold">VSP Visa Consultant</text>
  
  <!-- Side Buildings -->
  <rect x="250" y="200" width="120" height="300" fill="url(#buildingGradient)"/>
  <rect x="260" y="210" width="100" height="280" fill="url(#glassGradient)"/>
  
  <rect x="630" y="180" width="150" height="320" fill="url(#buildingGradient)"/>
  <rect x="640" y="190" width="130" height="300" fill="url(#glassGradient)"/>
  
  <!-- Background Buildings -->
  <rect x="100" y="250" width="80" height="250" fill="#34495E" opacity="0.6"/>
  <rect x="800" y="220" width="100" height="280" fill="#34495E" opacity="0.6"/>
  <rect x="950" y="240" width="90" height="260" fill="#34495E" opacity="0.6"/>
  
  <!-- Corporate Logo/Sign -->
  <rect x="450" y="130" width="100" height="40" fill="white" opacity="0.9" rx="5"/>
  <circle cx="470" cy="150" r="12" fill="#0052CC"/>
  <text x="490" y="155" font-family="Arial" font-size="14" fill="#0052CC" font-weight="bold">VSP Visa Consultant</text>
  
  <!-- Professional Icons -->
  <!-- Scale of Justice -->
  <g transform="translate(150,100)">
    <rect x="48" y="0" width="4" height="80" fill="#8B4513"/>
    <rect x="35" y="75" width="30" height="5" fill="#8B4513"/>
    
    <!-- Left Scale -->
    <line x1="50" y1="20" x2="30" y2="30" stroke="#8B4513" stroke-width="2"/>
    <ellipse cx="25" cy="32" rx="8" ry="3" fill="#F39C12"/>
    
    <!-- Right Scale -->
    <line x1="50" y1="20" x2="70" y2="30" stroke="#8B4513" stroke-width="2"/>
    <ellipse cx="75" cy="32" rx="8" ry="3" fill="#F39C12"/>
    
    <!-- Top -->
    <line x1="30" y1="30" x2="70" y2="30" stroke="#8B4513" stroke-width="2"/>
    <circle cx="50" cy="20" r="3" fill="#F39C12"/>
  </g>
  
  <!-- Award Trophy -->
  <g transform="translate(900,80)">
    <ellipse cx="50" cy="70" rx="15" ry="8" fill="#F39C12"/>
    <rect x="45" y="55" width="10" height="15" fill="#F39C12"/>
    <ellipse cx="50" cy="55" rx="12" ry="15" fill="#FFD700"/>
    <rect x="46" y="45" width="8" height="10" fill="#E67E22"/>
    <text x="50" y="52" text-anchor="middle" font-family="Arial" font-size="8" fill="#8B4513" font-weight="bold">1</text>
    
    <!-- Handles -->
    <path d="M 38 50 Q 32 45 32 55 Q 32 65 38 60" stroke="#E67E22" stroke-width="2" fill="none"/>
    <path d="M 62 50 Q 68 45 68 55 Q 68 65 62 60" stroke="#E67E22" stroke-width="2" fill="none"/>
  </g>
  
  <!-- Handshake Icon -->
  <g transform="translate(50,350)">
    <rect x="0" y="20" width="15" height="30" fill="#F4D03F" rx="3"/>
    <rect x="10" y="15" width="20" height="15" fill="#F4D03F" rx="3"/>
    <rect x="25" y="20" width="15" height="30" fill="#D5DBDB" rx="3"/>
    <rect x="15" y="15" width="20" height="15" fill="#D5DBDB" rx="3"/>
    
    <!-- Fingers -->
    <rect x="5" y="10" width="3" height="12" fill="#F4D03F" rx="1"/>
    <rect x="32" y="10" width="3" height="12" fill="#D5DBDB" rx="1"/>
  </g>
  
  <!-- Globe with Connections -->
  <g transform="translate(850,300)">
    <circle cx="0" cy="0" r="30" fill="#27AE60" opacity="0.8"/>
    
    <!-- Continents -->
    <path d="M -20 -10 Q -10 -20 0 -10 Q 10 -20 20 -10" stroke="#1E8449" stroke-width="2" fill="none"/>
    <path d="M 0 -30 Q 15 -15 0 0 Q -15 -15 0 -30" stroke="#1E8449" stroke-width="2" fill="none"/>
    <path d="M 0 0 Q 15 15 0 30 Q -15 15 0 0" stroke="#1E8449" stroke-width="2" fill="none"/>
    
    <!-- Connection Lines -->
    <line x1="-25" y1="-15" x2="25" y2="15" stroke="white" stroke-width="2" opacity="0.7"/>
    <line x1="-25" y1="15" x2="25" y2="-15" stroke="white" stroke-width="2" opacity="0.7"/>
    <line x1="0" y1="-30" x2="0" y2="30" stroke="white" stroke-width="2" opacity="0.7"/>
    
    <!-- Connection Points -->
    <circle cx="-20" cy="-15" r="3" fill="#E74C3C"/>
    <circle cx="20" cy="-15" r="3" fill="#E74C3C"/>
    <circle cx="-20" cy="15" r="3" fill="#E74C3C"/>
    <circle cx="20" cy="15" r="3" fill="#E74C3C"/>
  </g>
  
  <!-- Timeline Arrow -->
  <path d="M 200 450 L 1000 450" stroke="white" stroke-width="3" opacity="0.8"/>
  <polygon points="1000,450 990,445 990,455" fill="white" opacity="0.8"/>
  
  <!-- Timeline Milestones -->
  <circle cx="300" cy="450" r="8" fill="#F39C12"/>
  <text x="300" y="470" text-anchor="middle" font-family="Arial" font-size="10" fill="white" font-weight="bold">2008</text>
  <text x="300" y="430" text-anchor="middle" font-family="Arial" font-size="8" fill="white">Founded</text>
  
  <circle cx="500" cy="450" r="8" fill="#E74C3C"/>
  <text x="500" y="470" text-anchor="middle" font-family="Arial" font-size="10" fill="white" font-weight="bold">2012</text>
  <text x="500" y="430" text-anchor="middle" font-family="Arial" font-size="8" fill="white">1000+ Cases</text>
  
  <circle cx="700" cy="450" r="8" fill="#27AE60"/>
  <text x="700" y="470" text-anchor="middle" font-family="Arial" font-size="10" fill="white" font-weight="bold">2018</text>
  <text x="700" y="430" text-anchor="middle" font-family="Arial" font-size="8" fill="white">Award Won</text>
  
  <circle cx="900" cy="450" r="8" fill="#3498DB"/>
  <text x="900" y="470" text-anchor="middle" font-family="Arial" font-size="10" fill="white" font-weight="bold">2025</text>
  <text x="900" y="430" text-anchor="middle" font-family="Arial" font-size="8" fill="white">5000+ Clients</text>
  
  <!-- Success Stars -->
  <g fill="#F1C40F" opacity="0.9">
    <polygon points="100,100 102,106 108,106 103,110 105,116 100,112 95,116 97,110 92,106 98,106" />
    <polygon points="1050,120 1052,126 1058,126 1053,130 1055,136 1050,132 1045,136 1047,130 1042,126 1048,126" />
    <polygon points="300,80 302,86 308,86 303,90 305,96 300,92 295,96 297,90 292,86 298,86" />
  </g>
  
  <!-- Professional Team Silhouettes -->
  <g transform="translate(1050,350)" opacity="0.6">
    <!-- Person 1 -->
    <circle cx="0" cy="0" r="8" fill="white"/>
    <rect x="-6" y="8" width="12" height="20" fill="white" rx="2"/>
    
    <!-- Person 2 -->
    <circle cx="20" cy="0" r="8" fill="white"/>
    <rect x="14" y="8" width="12" height="20" fill="white" rx="2"/>
    
    <!-- Person 3 -->
    <circle cx="40" cy="0" r="8" fill="white"/>
    <rect x="34" y="8" width="12" height="20" fill="white" rx="2"/>
  </g>
  
  <!-- Company Values Icons -->
  <!-- Integrity Shield -->
  <g transform="translate(1100,200)">
    <path d="M 0 20 L -15 5 L -15 -15 L 0 -20 L 15 -15 L 15 5 Z" fill="#27AE60" opacity="0.8"/>
    <path d="M 0 15 L -10 3 L -10 -10 L 0 -15 L 10 -10 L 10 3 Z" fill="#2ECC71"/>
    <path d="M -5 -5 L -2 0 L 5 -8" stroke="white" stroke-width="2" fill="none"/>
  </g>
  
  <!-- Excellence Star -->
  <g transform="translate(50,150)">
    <polygon points="0,-15 -4,0 -15,0 -6,8 -9,20 0,12 9,20 6,8 15,0 4,0" fill="#F39C12"/>
    <polygon points="0,-10 -3,0 -10,0 -4,5 -6,13 0,8 6,13 4,5 10,0 3,0" fill="#FFD700"/>
  </g>
</svg>
